<svg xmlns="http://www.w3.org/2000/svg" viewBox="0 0 313.83 419.79"><defs><style>.cls-1{fill:#cad6d2;}.cls-2{fill:#0c3148;}.cls-3{opacity:0.1;}.cls-4{fill:#fff;}.cls-5{fill:#bb2221;}.cls-6{fill:#d72829;}.cls-7{fill:#0e3248;}.cls-8{fill:#ba2521;}.cls-9{fill:#c9d5d2;}.cls-10{fill:#fcc945;}.cls-11{fill:#dfb33d;}.cls-12{fill:#f0bd2a;}</style></defs><g id="Patte_droite" data-name="Patte droite"><path class="cls-1" d="M422.12,191.65a262.6,262.6,0,0,1,37.52,2.68c2.5.34,5,.72,7.47,1.17h0A263.39,263.39,0,0,1,526.2,213c3.93,1.65,7.82,3.44,11.66,5.28a275.27,275.27,0,0,1,32.85,18.82,333.7,333.7,0,0,1-4.93,45.8c-.53,3-1.09,6-1.71,8.92q-3.24,15.6-7.87,30.58v0q-1.58,5-3.28,9.94c-.54,1.59-1.1,3.16-1.68,4.73q-3.42,9.45-7.42,18.6h0q-2,4.67-4.21,9.25a315.21,315.21,0,0,1-15.81,29.23h0c-1.5,2.44-3,4.85-4.58,7.23a299.38,299.38,0,0,1-18.05,24.92c-1.08,1.37-2.2,2.73-3.32,4.08a293.08,293.08,0,0,1-47.74,45.86c-3.26,2.5-6.56,4.91-9.93,7.24h0q-1.86,1.32-3.73,2.56c-2.78,1.88-5.58,3.69-8.43,5.46-2.34,1.46-4.71,2.89-7.1,4.27a289.23,289.23,0,0,1-76.85-65.29l-1.21-1.46c-.62-.75-1.23-1.5-1.84-2.26s-1.35-1.69-2-2.54c-1.93-2.43-3.8-4.9-5.66-7.4-2.07-2.78-4.09-5.62-6.07-8.49q-4.65-6.74-8.94-13.76l-.06-.11a313.85,313.85,0,0,1-28.38-59.39c-.86-2.37-1.67-4.75-2.47-7.15q-2.51-7.57-4.63-15.36-2.88-10.39-5.07-21.07c-.69-3.3-1.31-6.62-1.9-9.93a335.62,335.62,0,0,1-4.62-42.91,268.53,268.53,0,0,1,119.38-45.16q6.87-.81,13.85-1.28h0c5.85-.39,11.76-.59,17.69-.59m0-7c-5.94,0-12,.2-17.92.59h0l-.25,0c-4.88.34-9.66.78-14.19,1.31a271.76,271.76,0,0,0-64.43,15.93,282.45,282.45,0,0,0-58.07,30.4L264,235.09l.17,3.9a342.77,342.77,0,0,0,4.72,43.8c.71,4,1.33,7.22,1.94,10.17,1.49,7.23,3.23,14.47,5.18,21.5,1.45,5.32,3,10.61,4.73,15.69.67,2,1.56,4.67,2.53,7.34a321.53,321.53,0,0,0,28.87,60.45l0,.06.16.25c2.93,4.8,6,9.54,9.15,14.09,2.18,3.16,4.22,6,6.22,8.7,2.27,3,4.06,5.38,5.79,7.57.67.85,1.36,1.73,2.06,2.59s1.25,1.54,1.89,2.31l1.23,1.5a295.39,295.39,0,0,0,78.71,66.85l3.5,2,3.51-2c2.35-1.36,4.81-2.84,7.31-4.4,3-1.86,5.82-3.69,8.62-5.58,1.18-.78,2.35-1.58,3.49-2.39l.33-.23c3.39-2.34,6.83-4.85,10.21-7.44a300.59,300.59,0,0,0,48.87-46.94c1.1-1.33,2.28-2.76,3.41-4.19a308.4,308.4,0,0,0,18.44-25.47c1.49-2.27,3-4.69,4.68-7.38l1-1.69v0c5.48-9.09,10.57-18.56,15.14-28.18,1.51-3.2,3-6.38,4.3-9.47l.58-1.33h0c2.51-5.81,4.86-11.75,7-17.67.61-1.68,1.18-3.28,1.72-4.86,1.12-3.22,2.25-6.64,3.33-10.1l.32-1v0c3-9.76,5.59-19.92,7.73-30.21.57-2.73,1.13-5.63,1.75-9.12a343.39,343.39,0,0,0,5-46.76l.15-3.91-3.26-2.18A282.66,282.66,0,0,0,540.92,212c-4.56-2.19-8.37-3.91-12-5.44a270.76,270.76,0,0,0-60.59-17.93l-.41-.07c-2.21-.4-4.61-.77-7.3-1.14a271.2,271.2,0,0,0-38.49-2.75Z" transform="translate(-264.03 -84.1)"/><path class="cls-2" d="M570.71,237.09a333.7,333.7,0,0,1-4.93,45.8c-.53,3-1.09,6-1.71,8.92q-3.24,15.6-7.87,30.58v0q-1.58,5-3.28,9.94c-.54,1.59-1.1,3.16-1.68,4.73q-3.42,9.45-7.42,18.6h0q-2,4.67-4.21,9.25a315.21,315.21,0,0,1-15.81,29.23h0c-1.5,2.44-3,4.85-4.58,7.23a299.38,299.38,0,0,1-18.05,24.92c-1.08,1.37-2.2,2.73-3.32,4.08a293.08,293.08,0,0,1-47.74,45.86c-3.26,2.5-6.56,4.91-9.93,7.24h0q-1.86,1.32-3.73,2.56c-2.78,1.88-5.58,3.69-8.43,5.46-2.34,1.46-4.71,2.89-7.1,4.27a289.23,289.23,0,0,1-76.85-65.29l-1.21-1.46c-.62-.75-1.23-1.5-1.84-2.26s-1.35-1.69-2-2.54c-1.93-2.43-3.8-4.9-5.66-7.4-2.07-2.78-4.09-5.62-6.07-8.49q-4.65-6.74-8.94-13.76l-.06-.11a313.85,313.85,0,0,1-28.38-59.39c-.86-2.37-1.67-4.75-2.47-7.15q-2.51-7.57-4.63-15.36-2.88-10.39-5.07-21.07c-.69-3.3-1.31-6.62-1.9-9.93a335.62,335.62,0,0,1-4.62-42.91,268.53,268.53,0,0,1,119.38-45.16q6.87-.81,13.85-1.28h0c5.85-.39,11.76-.59,17.69-.59a262.6,262.6,0,0,1,37.52,2.68c2.5.34,5,.72,7.47,1.17h0A263.39,263.39,0,0,1,526.2,213c3.93,1.65,7.82,3.44,11.66,5.28A275.27,275.27,0,0,1,570.71,237.09Z" transform="translate(-264.03 -84.1)"/><g id="_7Rlwse.tif" data-name="7Rlwse.tif" class="cls-3"><path class="cls-4" d="M538.57,365c-1.4-3-2.86-5.9-4.39-8.82-.38-.74-.76-1.46-1.16-2.18-.77-1.45-1.55-2.9-2.36-4.35-5.59-10-11.81-19.57-20.16-27.54-3.34-3.19-6.37-3.66-10.59-1.75a23.93,23.93,0,0,0-11.36,10.36c-3.69,6.89-7.37,13.89-9.95,21.25C470.72,374.52,467,398.13,462,421.44c-.31,1.41-.6,2.82-.91,4.25q-.9,4.23-1.84,8.46t-1.91,8.47c-.64,2.78-1.3,5.57-2,8.34q-.9,3.66-1.88,7.29c-.23.88-.48,1.76-.72,2.65-.54,2-1.12,4-1.72,6-.3,1-.59,2-.9,3a285.17,285.17,0,0,0,69.11-69c1.56-2.19,3.08-4.43,4.58-6.67a282.89,282.89,0,0,0,15.81-27C539.27,366.48,538.93,365.74,538.57,365ZM428.85,234.06a57.41,57.41,0,0,0-6.37-6.58c-9.64-7.89-20.5-13.63-31.91-18.31A282.28,282.28,0,0,0,271.2,250.81a284.59,284.59,0,0,0,4.61,39.55l1.07-.44c2-.84,4-1.62,6-2.38,19-7.2,38.83-11.58,58.64-15.93,19.2-4.22,38.45-8.2,57.49-13.07,7.89-2,15.46-5.68,22.78-9.4,3.11-1.58,5.44-5,7.65-8C431.1,238.94,430.73,236.21,428.85,234.06ZM563,299.49c-.93-.27-1.89-.52-2.83-.73-.53-.12-1.06-.24-1.59-.34-.71-.16-1.43-.29-2.15-.4l-1.13-.19c-1.71-.27-3.41-.48-5.12-.6l-1-.06a61.84,61.84,0,0,0-8.17.05c-7.95.54-15.54,2.51-21.7,8-4.11,3.66-4.45,5-1.8,9.78,2.82,5.08,5.88,10,9,14.91,2,3.1,4,6.22,5.94,9.34.66,1.06,1.3,2.09,1.92,3.14s1.29,2.1,1.92,3.15,1.26,2.09,1.87,3.16,1.24,2.14,1.86,3.2c1.13,1.94,2.22,3.92,3.28,5.9l.47.88q4-8.43,7.42-17.16.87-2.16,1.68-4.35,1.73-4.55,3.28-9.18h0a284.82,284.82,0,0,0,7.88-28.19ZM537.86,232q-14.49,10.33-29,20.69c-4.61,3.3-9.22,6.63-13.82,9.95-4.33,3.13-8.27,6.85-12.52,10.41,7.67,9.63,15,18.87,22.37,28.12,1.26,1.58,2.43.83,3.77.19,9.34-4.58,19-8.41,29.27-10.45,1-.2,2-.37,2.93-.51l.75-.13,1.31-.17,1.66-.2c1.13-.12,2.26-.2,3.37-.25.51,0,1-.05,1.5-.06l1.61,0c1.47,0,2.92.06,4.35.17l1.55.14.62.07c.64.08,1.28.16,1.9.26l1.39.23,1.23.25c.4.08.82.17,1.23.27s.63.14,1,.23l1.17.31.29.08a284.57,284.57,0,0,0,4.93-42.23A283.88,283.88,0,0,0,537.86,232ZM422.13,207.44q-8.91,0-17.69.55c1.09.61,2.18,1.23,3.26,1.86l3.24,1.93c1.13.69,2.26,1.39,3.38,2.1s2.25,1.42,3.35,2.14l3.34,2.2c1.1.74,2.21,1.47,3.31,2.22,2.91,2,5.89,3.84,8.9,5.66,1,.61,2,1.2,3,1.8,3.6,2.1,7.06,1.88,10.52-.72.3-.22.58-.45.86-.68s.85-.67,1.25-1,.8-.7,1.19-1,.6-.55.89-.84.57-.56.84-.85.55-.58.82-.88.69-.76,1-1.15a1.58,1.58,0,0,0,.12-.15c.32-.39.64-.79.94-1.19.13-.18.27-.36.4-.55s.3-.4.43-.61.33-.47.48-.71a32.25,32.25,0,0,0,3.65-7.6A284.62,284.62,0,0,0,422.13,207.44Zm-40.64-9.63c1.92.65,3.83,1.33,5.74,2.07,2.24.86,4.45,1.78,6.61,2.76-2.16-1-4.37-1.91-6.61-2.77Q384.37,198.76,381.49,197.81ZM467.13,211a.07.07,0,0,1,0,.06c-.17.67-.35,1.33-.56,2-.1.33-.21.66-.32,1s-.31.9-.48,1.35-.27.73-.41,1.1c-.38,1-.81,1.95-1.29,2.92-.1.2-.2.43-.31.63s-.17.36-.27.53c-.17.35-.36.69-.55,1s-.25.48-.39.71-.27.48-.42.73-.28.5-.44.75c-.32.54-.67,1.08-1,1.62l-.05.07c-.34.54-.71,1.09-1.1,1.63s-.75,1-1.15,1.57-.79,1-1.22,1.57c-.28.36-.57.7-.86,1.06s-.59.71-.91,1.06-.6.69-.92,1.05c-1,1-1.95,2.09-3,3.14-.29.29-.58.59-.89.87s-.72.71-1.1,1.05-1,.92-1.48,1.37l-.2.17h0c9,8.42,17.53,16.42,26.18,24.32.48.44,2.1.24,2.75-.24,3.52-2.61,6.91-5.39,10.34-8.13,3.13-2.49,6.25-5,9.39-7.44l2-1.57,4.49-3.47c5.3-4,10.69-8,16.2-11.74,1.23-.83,2.46-1.66,3.72-2.48l.77-.5c.85-.55,1.7-1.1,2.56-1.64A280.68,280.68,0,0,0,467.13,211Z" transform="translate(-264.03 -84.1)"/><path class="cls-4" d="M499.31,308.31c-3.82,4-7.55,7.47-10.81,11.35-10.11,12.11-16,26.41-20.78,41.26-6.92,21.58-10.84,43.88-15.38,66-3.42,16.71-6.77,33.44-12.15,49.6h0q-1.85,1.21-3.73,2.37-4.17,2.59-8.42,5-3.52,2-7.11,3.94a284.82,284.82,0,0,1-76.85-60.2c-1.72-1.89-3.41-3.82-5.07-5.77q-2.88-3.37-5.65-6.83,13.83-15.7,27.82-31.24a722.82,722.82,0,0,1,64.08-62.62c15.82-13.64,32.37-26.45,48.59-39.63a28.26,28.26,0,0,1,2.49-1.59Z" transform="translate(-264.03 -84.1)"/><path class="cls-4" d="M466.67,271.93A1348.93,1348.93,0,0,0,327.26,407.26a282.82,282.82,0,0,1-37.38-67.55c-.86-2.19-1.67-4.38-2.46-6.59q-2.51-7-4.64-14.16-2.88-9.58-5.07-19.43c15.44-7.28,32.1-11.12,48.75-14.7,20.82-4.48,41.68-8.66,62.39-13.55,15.43-3.63,30.27-9.09,43.66-17.87,2.55-1.66,4.89-3.67,7.42-5.38.67-.45,2.17-.81,2.53-.45C450.48,255.51,458.41,263.55,466.67,271.93Z" transform="translate(-264.03 -84.1)"/><path class="cls-4" d="M539.61,367.22a282.89,282.89,0,0,1-15.81,27c-1.5,2.24-3,4.48-4.58,6.67a285.17,285.17,0,0,1-69.11,69c.32-1,.62-2,.9-3,.6-2,1.18-4,1.72-6,.24-.89.49-1.77.72-2.65q1-3.63,1.88-7.29c.7-2.77,1.36-5.56,2-8.34s1.3-5.65,1.91-8.47,1.24-5.64,1.84-8.46c.31-1.43.6-2.84.91-4.25,5-23.31,8.73-46.92,16.61-69.48,2.58-7.36,6.26-14.36,9.95-21.25a23.93,23.93,0,0,1,11.36-10.36c4.22-1.91,7.25-1.44,10.59,1.75,8.35,8,14.57,17.56,20.16,27.54.81,1.45,1.59,2.9,2.36,4.35.4.72.78,1.44,1.16,2.18,1.53,2.92,3,5.85,4.39,8.82C538.93,365.74,539.27,366.48,539.61,367.22Z" transform="translate(-264.03 -84.1)"/><path class="cls-4" d="M290.58,216.58q-2.35,2.32-4.64,4.76C287.44,219.72,289,218.13,290.58,216.58Z" transform="translate(-264.03 -84.1)"/><path class="cls-4" d="M429.45,241.15c-2.21,3-4.54,6.41-7.65,8-7.32,3.72-14.89,7.37-22.78,9.4-19,4.87-38.29,8.85-57.49,13.07-19.81,4.35-39.61,8.73-58.64,15.93-2,.76-4,1.54-6,2.38l-1.07.44a284.59,284.59,0,0,1-4.61-39.55,282.28,282.28,0,0,1,119.37-41.64c11.41,4.68,22.27,10.42,31.91,18.31a57.41,57.41,0,0,1,6.37,6.58C430.73,236.21,431.1,238.94,429.45,241.15Z" transform="translate(-264.03 -84.1)"/><path class="cls-4" d="M564.08,299.8A284.82,284.82,0,0,1,556.2,328h0q-1.56,4.63-3.28,9.18-.81,2.19-1.68,4.35-3.42,8.73-7.42,17.16l-.47-.88c-1.06-2-2.15-4-3.28-5.9-.62-1.06-1.23-2.13-1.86-3.2s-1.24-2.11-1.87-3.16-1.25-2.1-1.92-3.15-1.26-2.08-1.92-3.14c-1.94-3.12-3.93-6.24-5.94-9.34-3.14-4.89-6.2-9.83-9-14.91-2.65-4.75-2.31-6.12,1.8-9.78,6.16-5.5,13.75-7.47,21.7-8a61.84,61.84,0,0,1,8.17-.05l1,.06c1.71.12,3.41.33,5.12.6l1.13.19c.72.11,1.44.24,2.15.4.53.1,1.06.22,1.59.34.94.21,1.9.46,2.83.73Z" transform="translate(-264.03 -84.1)"/><path class="cls-4" d="M570.71,249.33a284.57,284.57,0,0,1-4.93,42.23l-.29-.08-1.17-.31c-.32-.09-.64-.16-1-.23s-.83-.2-1.23-.27l-1.23-.25-1.39-.23c-.62-.1-1.26-.18-1.9-.26l-.62-.07-1.55-.14c-1.43-.11-2.88-.17-4.35-.17l-1.61,0c-.49,0-1,0-1.5.06-1.11.05-2.24.13-3.37.25l-1.66.2-1.31.17-.75.13c-1,.14-1.95.31-2.93.51-10.29,2-19.93,5.87-29.27,10.45-1.34.64-2.51,1.39-3.77-.19-7.33-9.25-14.7-18.49-22.37-28.12,4.25-3.56,8.19-7.28,12.52-10.41,4.6-3.32,9.21-6.65,13.82-9.95q14.46-10.38,29-20.69A283.88,283.88,0,0,1,570.71,249.33Z" transform="translate(-264.03 -84.1)"/><path class="cls-4" d="M445.52,165.56a12.92,12.92,0,0,0-1.7-.45A9.49,9.49,0,0,1,445.52,165.56Z" transform="translate(-264.03 -84.1)"/><path class="cls-4" d="M422.13,207.44a284.62,284.62,0,0,1,37.51,2.46,32.25,32.25,0,0,1-3.65,7.6c-.15.24-.31.48-.48.71s-.28.4-.43.61-.27.37-.4.55c-.3.4-.62.8-.94,1.19a1.58,1.58,0,0,1-.12.15c-.32.39-.66.77-1,1.15s-.53.59-.82.88-.55.57-.84.85-.58.57-.89.84-.78.71-1.19,1-.82.69-1.25,1-.56.44-.86.66c-3.46,2.61-6.93,2.83-10.51.73-1-.59-2-1.19-3-1.79-3-1.82-6-3.68-8.9-5.66-1.1-.75-2.21-1.48-3.31-2.22s-2.22-1.47-3.34-2.2-2.22-1.44-3.35-2.14-2.24-1.41-3.38-2.1-2.15-1.3-3.24-1.93-2.17-1.25-3.26-1.86Q413.22,207.44,422.13,207.44Z" transform="translate(-264.03 -84.1)"/><path class="cls-4" d="M465.41,184.53c-.49-1.37-1.05-2.77-1.68-4.17C464.36,181.76,464.92,183.14,465.41,184.53Z" transform="translate(-264.03 -84.1)"/><path class="cls-4" d="M466.72,188.65c-.36-1.36-.81-2.73-1.31-4.12C465.93,185.92,466.36,187.29,466.72,188.65Z" transform="translate(-264.03 -84.1)"/><path class="cls-4" d="M467.13,211a280.68,280.68,0,0,1,59.07,16.14c-.86.54-1.71,1.09-2.56,1.64l-.77.5c-1.26.81-2.48,1.65-3.72,2.48-5.51,3.75-10.9,7.69-16.2,11.74L498.46,247l-2,1.57c-3.14,2.47-6.26,4.95-9.39,7.44-3.43,2.74-6.82,5.52-10.34,8.13-.65.48-2.27.68-2.75.24-8.65-7.9-17.17-15.9-26.18-24.32l.19-.18c.5-.45,1-.91,1.48-1.37s.75-.7,1.1-1.05.6-.58.89-.87c1.05-1,2.06-2.09,3-3.14.32-.36.63-.7.92-1.05s.61-.71.91-1.06.59-.7.86-1.06c.43-.53.83-1,1.22-1.57s.78-1,1.15-1.57.76-1.09,1.1-1.63l.05-.07c.35-.54.7-1.08,1-1.62.16-.25.3-.49.44-.75s.29-.48.42-.73.27-.47.39-.71.38-.68.55-1c.1-.17.18-.35.27-.53s.21-.43.31-.63c.48-1,.91-1.94,1.29-2.92.14-.37.29-.74.41-1.1s.33-.89.48-1.35.22-.66.32-1c.21-.66.39-1.32.56-2a.08.08,0,0,0,0-.06,42,42,0,0,0,1-5A39.77,39.77,0,0,1,467.13,211Z" transform="translate(-264.03 -84.1)"/></g><path class="cls-4" d="M523.8,394.18c-1.5,2.44-3,4.85-4.58,7.23a299.38,299.38,0,0,1-18.05,24.92L341,426.79c-.68-.84-1.35-1.69-2-2.54-1.93-2.43-3.8-4.9-5.66-7.4-2.07-2.78-4.09-5.62-6.07-8.49q-4.65-6.74-8.94-13.76l-.06-.11Z" transform="translate(-264.03 -84.1)"/><polygon class="cls-5" points="170.93 329.98 184.1 329.98 183.39 333.91 166.93 333.9 160.52 339.37 160.52 341.02 189.49 341.02 191.51 330.08 184.01 322.94 170.96 322.94 171.73 318.79 187.97 318.77 194.61 313.19 194.61 311.75 165.6 311.75 163.51 323.03 170.93 329.98"/><polygon class="cls-5" points="197.05 311.75 191.67 341.02 221.12 341.02 221.12 339.08 215.22 333.9 200.4 333.89 201.12 330 212.38 329.99 218.98 324.27 218.98 322.95 202.4 322.99 203.18 318.79 219.48 318.8 226.32 313.1 226.32 311.75 197.05 311.75"/><polygon class="cls-5" points="155.99 311.75 150.6 341.02 158.03 341.02 162.39 317.28 157.75 311.75 155.99 311.75"/><polygon class="cls-5" points="148.5 341.02 126.07 341.02 120.05 333.9 124.12 311.75 131.4 311.75 127.8 332.13 129.31 333.92 142.37 333.99 146.46 311.75 153.86 311.75 148.5 341.02"/><polygon class="cls-5" points="92.28 311.75 121.71 311.75 121.6 313.42 115.14 318.8 98.26 318.8 95.47 333.9 110.24 333.9 110.96 329.96 103.68 329.99 103.74 328.31 110.15 322.96 119.67 322.96 116.31 341.02 86.91 341.02 92.28 311.75"/><path class="cls-4" d="M439.87,330.84l-36.12.31-11.15,9.56-8,45.82h13.81l1.33-7.58h27.89l-.53,7.58H440.4l8-45.55Zm-9.47,34.24H402l3-17.23,3.7-3.33h21.91l3.2,3.33Z" transform="translate(-264.03 -84.1)"/><path class="cls-5" d="M441.24,387.53H426.05l1.19-7.58H400.61l-1.33,7.58H383.45l8.23-47.35,11.7-10,37-.32,9.1,10.86Zm-13-2h11.36l7.75-44.27-7.9-9.42-35.28.31-10.61,9.08-7.7,44.3H397.6l1.33-7.58h30.34Zm3-19.45H400.77L404,347.34l4.23-3.82h22.72l3.86,4Zm-28.07-2h26.42l3.07-15.91-2.55-2.65H409l-3.15,2.84Z" transform="translate(-264.03 -84.1)"/><path class="cls-4" d="M376.05,330.84H330.2l-9.52,55.69h13.66l3.41-20.84,30.23-.18,14.17-11.79L384.26,341Zm-7.4,21.24H340.13l1.18-7.56h25.31l3,3.34Z" transform="translate(-264.03 -84.1)"/><path class="cls-5" d="M335.19,387.53H319.5l9.86-57.69h47.17l8.78,10.84-2.23,13.58-14.73,12.25-29.75.18Zm-13.32-2h11.62l3.41-20.83,30.72-.19,13.61-11.32,2-11.95-7.63-9.4H331.05Zm47.57-32.45H339l1.5-9.56h26.61l3.69,4.06Zm-28.14-2h26.56l.7-2.93-2.38-2.63h-24Z" transform="translate(-264.03 -84.1)"/><polygon class="cls-4" points="253.74 246.96 253.74 250.12 241.24 260.35 209.63 260.35 204.66 288.51 233.17 288.51 244.07 298.63 244.07 302.43 188.35 302.43 198.03 246.96 253.74 246.96"/><path class="cls-5" d="M509.1,387.53H451.19l10-57.47h57.55v4.63l-13.14,10.77H474.5l-4.62,26.15h27.71L509.1,382.3Zm-55.53-2H507.1v-2.36l-10.29-9.56H467.5l5.32-30.15h32.1l11.85-9.71v-1.69H462.91Z" transform="translate(-264.03 -84.1)"/><path class="cls-6" d="M417.79,321.17h-.6c-5.37,0-33.13-1.26-52.78-26.17l-9.1-10.61,11.36.2c2.19-.27,7.95-6.11,12.83-12.86a10.39,10.39,0,0,0-8.92-4.43,13,13,0,0,0-3.16.37l-3.17.92-2.19-2.5-10.74-12.62,2.62-3.45c-18-3.63-28.2-12.26-28.68-12.68l-3.93-3.41a73.93,73.93,0,0,1-23.67-15.21l-7.82-7.82,6.82-.55c-22.5-14.39-24.14-29.85-24.2-30.63l-.64-7.26,5.41,1.45c-10.78-29.83,5-53.65,5.78-54.76l5-7.38,4.21,8.88A115.54,115.54,0,0,1,301,97.26l6.91-13.16,2.64,14.63c2.67,14.81,7.11,23.17,10.36,27.57a52.5,52.5,0,0,1,17-16.69l8.37-4.74-.76,9.59c-1.51,19.2,7.27,35.08,14.77,44.91.16-2.71.43-5,.6-6.3l1-7.19,1,.54c.65-9.81,3.81-15.13,4.26-15.84l5.48-8.66,3.62,9.59a58.77,58.77,0,0,0,12.54,20,20.42,20.42,0,0,1,5.56-5.29l7.87-4.72-.13,9.17a7.57,7.57,0,0,0,.34,2.24,30.19,30.19,0,0,1,14.75-4.1h1.25a30.16,30.16,0,0,1,14.75,4.1,7.58,7.58,0,0,0,.35-2.24l-.13-9.17,7.86,4.72a20.54,20.54,0,0,1,5.57,5.29,58.71,58.71,0,0,0,12.54-20l3.61-9.59,5.48,8.66c.45.71,3.61,6,4.26,15.84l1.05-.54,1,7.19c.17,1.29.44,3.56.61,6.26,7.49-9.87,16.27-25.76,14.76-44.87l-.75-9.59,8.36,4.74a52.35,52.35,0,0,1,17,16.7c3.23-4.38,7.68-12.75,10.36-27.58l2.64-14.63,6.91,13.16a115.16,115.16,0,0,1,8.77,23.39l4.21-8.88,5,7.38c.75,1.11,16.55,24.93,5.78,54.76l5.4-1.45-.63,7.26c-.07.78-1.7,16.24-24.2,30.63l6.81.55-7.82,7.82a73.92,73.92,0,0,1-23.67,15.22l-3.93,3.4c-.48.42-10.63,9-28.68,12.68l2.62,3.45-12.92,15.19-3.22-1a12.84,12.84,0,0,0-3.11-.36,10.42,10.42,0,0,0-8.93,4.43c4.88,6.75,10.66,12.59,12.9,12.86l11.36-.2L472.87,293l-1.7,2c-19.65,24.91-47.41,26.17-52.78,26.17Z" transform="translate(-264.03 -84.1)"/><path class="cls-7" d="M417.79,316.06s29.4,1.17,49.43-24.3L469,289.7c-7.15.12-19-17.75-19-17.75,6.47-13.24,19.61-9.17,19.61-9.17l8.08-9.49-5.39-7.09c22.2-1.93,34.66-12.73,34.66-12.73l-5.68-1.74c17.71-1.32,33-16.62,33-16.62L520.79,214C556.31,199,558,179.28,558,179.28l-8.83,2.37c17.87-32.07-.86-59.63-.86-59.63l-8,16.79c.86-17.86-10.33-39.18-10.33-39.18-5.17,28.63-16.79,35.31-16.79,35.31-5.17-13.56-18.09-20.88-18.09-20.88,2.8,35.52-26.47,60.06-26.47,60.06,3-5.08.95-20.37.95-20.37l-2.17,1.12c1.27-14.25-3.35-21.56-3.35-21.56-6.72,17.83-18.88,26.41-18.88,26.41a16.65,16.65,0,0,0-6.64-9.18c.08,5.3-3.8,9.93-3.8,9.93a25.29,25.29,0,0,0-34.05,0s-3.88-4.63-3.8-9.93a16.65,16.65,0,0,0-6.64,9.18s-12.16-8.58-18.87-26.41c0,0-4.63,7.31-3.36,21.56l-2.16-1.12s-2.05,15.29.95,20.37c0,0-29.28-24.54-26.48-60.06,0,0-12.91,7.32-18.08,20.88,0,0-11.63-6.68-16.79-35.31,0,0-11.2,21.32-10.33,39.18l-8-16.79s-18.73,27.56-.86,59.63l-8.83-2.37S279.26,199,314.78,214l-13.51,1.09s15.31,15.3,33,16.62l-5.69,1.74s12.47,10.8,34.66,12.73l-5.39,7.09,8.08,9.49s13.15-4.07,19.62,9.17c0,0-11.84,17.87-19,17.75l1.77,2.06C388.38,317.23,417.79,316.06,417.79,316.06Z" transform="translate(-264.03 -84.1)"/><path class="cls-8" d="M382.54,231.37s-4.4,4.49-17.38,3.92l-.42-3.7s-19.51,6.81-32.47-11.26c0,0,18.41-9.88,14.66-20.46,0,0-16.7,23.19-40.91-2.72,0,0,16,.35,20.12-11.25l-14.64,2s-30.84-10.37-21.91-43c0,0,7,6.44,10.81,8.27,2.16,1.06,4.64,4.1,6.35,6.52l0,0c1.17,1.63,2,3,2.13,3.21,0-.11-.13-.46-.27-1-1.19-4.61-5.47-23.11-.87-34.12L321,144.46l3.46,11.85s1.15-18.86,9-22.09c0,0,8.34,23.71,17.67,34.05a152.06,152.06,0,0,0,17.45,15.87c3.79,3,6.45,4.9,6.45,4.9s-8.94,7.9-10.25,18.81h5a30.37,30.37,0,0,0,.63,6.37C371.44,219.77,374.42,227.51,382.54,231.37Z" transform="translate(-264.03 -84.1)"/><path class="cls-6" d="M364.74,207.85h5a30.37,30.37,0,0,0,.63,6.37H354.71c7.16-19.93,3.06-23.85,3.06-23.85-12.25,11.75-34.4,9.88-34.4,9.88,8.18-4.77,14.74-17.12,14.74-17.12-38.07,6.19-46.16-34-46.16-34v-2c3.74,3.41,4.63,4.93,7.86,6.25,1.71.71,4.6,3.73,6.94,6.4l0,0c.68.78,1.32,1.52,1.86,2.17,1.09,1.32,1.81,2.25,1.81,2.25l1.39,1.26a41.77,41.77,0,0,1,3.2-18.83l12.77,18.07c.34-10.05,5.1-14,5.1-14,8.84,18.54,26.3,29,35.64,33.46,3.79,3,6.45,4.9,6.45,4.9S366.05,196.94,364.74,207.85Z" transform="translate(-264.03 -84.1)"/><path class="cls-8" d="M463.3,189s8.95,7.9,10.26,18.81h-5s.67,17.12-12.81,23.52c0,0,4.4,4.5,17.4,3.92l.41-3.71s19.51,6.82,32.47-11.25c0,0-18.41-9.88-14.66-20.45,0,0,16.7,23.18,40.91-2.73,0,0-16,.34-20.12-11.25l14.63,2s30.85-10.38,21.92-43c0,0-7,6.44-10.82,8.28s-8.51,9.78-8.51,9.78,6.44-22.55,1.15-35.2L517.3,144.46l-3.45,11.85s-1.15-18.87-9-22.09c0,0-8.33,23.71-17.68,34.05S463.3,189,463.3,189Z" transform="translate(-264.03 -84.1)"/><path class="cls-6" d="M473.74,207.85h-5a30.37,30.37,0,0,1-.63,6.37h15.65c-7.16-19.93-3.06-23.85-3.06-23.85,12.25,11.75,34.4,9.88,34.4,9.88-8.18-4.77-14.74-17.12-14.74-17.12,38.07,6.19,46.16-34,46.16-34v-2c-3.74,3.41-4.63,4.93-7.86,6.25-1.71.71-4.6,3.73-6.94,6.4l0,0c-.68.78-1.32,1.52-1.86,2.17-1.09,1.32-1.81,2.25-1.81,2.25l-1.39,1.26a41.77,41.77,0,0,0-3.2-18.83l-12.77,18.07c-.33-10.05-5.1-14-5.1-14-8.84,18.54-26.3,29-35.64,33.46-3.79,3-6.45,4.9-6.45,4.9S472.43,196.94,473.74,207.85Z" transform="translate(-264.03 -84.1)"/><path class="cls-4" d="M436,168.69h0a10.09,10.09,0,0,1-5.08,5.11c-6,3-12.2,10.12-12.2,10.12s-6.16-7.12-12.19-10.12a10.14,10.14,0,0,1-5.08-5.12,7,7,0,0,1-.61-2.93s7.64-7.87,17.88-7.28c10.25-.59,17.89,7.28,17.89,7.28A7.29,7.29,0,0,1,436,168.69Z" transform="translate(-264.03 -84.1)"/><path class="cls-8" d="M458.35,165.44l4.86-1.89s-5.45,15.63-18.26,17c-18.67,2-26.21,17.73-26.21,17.73s-7.53-15.73-26.2-17.73c-12.81-1.38-18.27-17-18.27-17l4.88,1.89c-7.23-6.77-5.66-18.86-5.66-18.86a22.4,22.4,0,0,0,1.65,3.61C381,160.65,394.61,169,394.61,169c1.72-3.88,1.77-5.48,1.77-5.48s1.94,8.35,7.46,10.94,14.9,13.42,14.9,13.42,9.4-10.81,14.91-13.42,7.46-10.94,7.46-10.94.05,1.6,1.77,5.48c0,0,13.63-8.36,19.46-18.81a23.82,23.82,0,0,0,1.67-3.65S465.58,158.67,458.35,165.44Z" transform="translate(-264.03 -84.1)"/><path class="cls-8" d="M418.75,223.42s14.44-7.23,15.87-13.94v4s13-6.3,15.65-18l2.69,4.87c6.82-14,0-22.06,0-22.06-.92,2.88-6.84,8.5-6.84,8.5l4.32.16c-4,8.29-13.07,8.67-13.07,8.67l3.63,3.06c-7,1-15.44-1.53-15.44-1.53-1.91,14.92-6.81,20.54-6.81,20.54s-4.91-5.62-6.82-20.54c0,0-8.42,2.55-15.43,1.53l3.62-3.06s-9.11-.38-13.06-8.67l4.32-.16s-5.93-5.62-6.85-8.5c0,0-6.81,8.07,0,22.06l2.69-4.87c2.66,11.65,15.66,18,15.66,18v-4C404.3,216.19,418.75,223.42,418.75,223.42Z" transform="translate(-264.03 -84.1)"/><path class="cls-4" d="M407.86,188.76c-5.23,2.76-6.25-3.68-6.25-3.68l-6.09-2.17s-2.3,8.36,7.58,10.7c4.47,1.06,7.53-3.62,7.53-3.62Z" transform="translate(-264.03 -84.1)"/><path class="cls-4" d="M430.39,188.76c5.23,2.76,6.25-3.68,6.25-3.68l6.09-2.17s2.29,8.36-7.58,10.7c-4.47,1.06-7.53-3.62-7.53-3.62Z" transform="translate(-264.03 -84.1)"/><path class="cls-9" d="M436,168.7a10.09,10.09,0,0,1-5.08,5.11c-6,3-12.2,10.12-12.2,10.12s-6.16-7.12-12.19-10.12a10.14,10.14,0,0,1-5.08-5.12A14.77,14.77,0,0,0,408,172l-.16-2.16s10.11,5,10.32,9.55h1.1c.21-4.51,10.3-9.55,10.3-9.55l-.14,2.16A15.05,15.05,0,0,0,436,168.7Z" transform="translate(-264.03 -84.1)"/><path class="cls-10" d="M418.75,212.71c1.41-1.24,2.42-6.17,2.74-7.91a1.3,1.3,0,0,0-.3-1.09l-2.44-2.81-2.44,2.81a1.27,1.27,0,0,0-.31,1.09C416.32,206.54,417.33,211.47,418.75,212.71Z" transform="translate(-264.03 -84.1)"/><path class="cls-11" d="M418.75,200.9l-2.44,2.81a1.27,1.27,0,0,0-.31,1.09c.32,1.74,1.33,6.67,2.75,7.91Z" transform="translate(-264.03 -84.1)"/><path class="cls-8" d="M439.55,288.08l2,11.23h-8.79l-.87,4.13-9.6-4.68-3.58,7.41-3.58-7.41-9.58,4.68-.88-4.13h-8.78l2-11.23c-3.38,4.14-17.44,2.46-17.44,2.46,7.41-4.19,18.25-25,18.25-25,7.14-5.34,14.25.28,17.74,4a28.1,28.1,0,0,1,2.24,2.65,27.44,27.44,0,0,1,2.25-2.65c3.48-3.68,10.59-9.3,17.74-4,0,0,10.84,20.8,18.25,25C457,290.54,442.92,292.22,439.55,288.08Z" transform="translate(-264.03 -84.1)"/><path class="cls-6" d="M431.55,277.8l2.61,12.86h-5.67v2.84l-7.63-3.28-1.53,3.28-2.4-3.71-6.75,3.71.19-2.61H404l2.5-13-10,6.15,8.41-14.49H416.5a28.1,28.1,0,0,1,2.24,2.65,27.44,27.44,0,0,1,2.25-2.65h12.3L441.58,283Z" transform="translate(-264.03 -84.1)"/><path class="cls-8" d="M418.75,262.52s5.52-10.27,11.41-11.15,5.31-5.52,5.31-5.52h-4.08s9.5-4.27,10.18-13.58c0,0-4.34,4-15.7,4.17-4.91.06-7.12,5.34-7.12,5.34s-2.21-5.28-7.12-5.34c-11.37-.13-15.71-4.17-15.71-4.17.68,9.31,10.18,13.58,10.18,13.58H402s-.58,4.65,5.3,5.52S418.75,262.52,418.75,262.52Z" transform="translate(-264.03 -84.1)"/><path class="cls-6" d="M418.83,257.26s4.26-7.15,9.52-8.91c0,0-3,0-4.49-1.75,0,0,6-5.61,8.64-6.62,0,0-6.56-1.44-13.75,4.72C411.55,238.54,405,240,405,240c2.62,1,8.64,6.62,8.64,6.62-1.49,1.7-4.49,1.75-4.49,1.75C414.41,250.11,418.83,257.26,418.83,257.26Z" transform="translate(-264.03 -84.1)"/><path class="cls-8" d="M418.75,233.74s3-6.16,23.67-6.44c0,0,9.67-2.38,12.53-9.51v7.69c7.92-3.07,6.07-23.22,6.07-23.22h4.2l-6-7.27c-2.23,8.39-8.53,15.52-8.53,15.52l-.42-5.59s-2.82,10.4-15.87,14.38-15.63,8.15-15.63,8.15-2.58-4.18-15.63-8.15-15.88-14.38-15.88-14.38l-.42,5.59s-6.29-7.13-8.53-15.52l-6,7.27h4.2s-1.84,20.15,6.07,23.22v-7.69c2.86,7.13,12.54,9.51,12.54,9.51C415.78,227.58,418.75,233.74,418.75,233.74Z" transform="translate(-264.03 -84.1)"/><path class="cls-6" d="M418.74,229.12c5.62-5.55,14.61-7.66,18.3-8.35a16,16,0,0,0,3.7-1.18,48.62,48.62,0,0,0,17.49-13.42,17.43,17.43,0,0,1-1,9.33l-2.4-3.15s-6.17,10.94-14.32,12.43-19.85,1.5-21.8,8.24h0c-1.94-6.74-13.64-6.74-21.79-8.24s-14.32-12.43-14.32-12.43l-2.4,3.15a17.32,17.32,0,0,1-1-9.33,48.53,48.53,0,0,0,17.48,13.42,16,16,0,0,0,3.71,1.18c3.69.69,12.67,2.8,18.29,8.35Z" transform="translate(-264.03 -84.1)"/><path class="cls-6" d="M455.55,168.56c1,2.65-12.46,6.91-12.46,6.91-23.19,6.89-24.35,15.7-24.35,17.37,0-1.67-1.15-10.48-24.35-17.37,0,0-13.41-4.26-12.45-6.91,4.41-.39,4.89-1.64,4.89-1.64-7.29-3.47-10.44-11.89-11.69-16.73C381,160.65,394.61,169,394.61,169c1.72-3.88,1.77-5.48,1.77-5.48s1.94,8.35,7.46,10.94,14.9,13.42,14.9,13.42,9.4-10.81,14.91-13.42,7.46-10.94,7.46-10.94.05,1.6,1.77,5.48c0,0,13.63-8.36,19.46-18.81-1.25,4.84-4.4,13.22-11.68,16.69C450.66,166.92,451.14,168.17,455.55,168.56Z" transform="translate(-264.03 -84.1)"/><path class="cls-12" d="M371.34,248.82a12.1,12.1,0,0,0-.84,3.9,7.81,7.81,0,0,0,2.95,6.67c3-.14,6.26-.62,7.83-2.19a8.36,8.36,0,0,1-4.59-4.61c-1.25-3.29-.15-7,.66-9C375.52,245.07,373.32,246.91,371.34,248.82Z" transform="translate(-264.03 -84.1)"/><path class="cls-12" d="M370.25,249.9a25.92,25.92,0,0,0-3,3.56c-3.56,5.35,1.19,6,1.19,6,.88,0,2.35,0,4,0C369.19,256.31,369.61,252.25,370.25,249.9Z" transform="translate(-264.03 -84.1)"/><path class="cls-12" d="M394.88,249v-3h-4.16l-9.51-5.34s-1.08.76-2.65,2c-.45.89-2.72,5.7-1.21,9.67a7.75,7.75,0,0,0,4.39,4.29,3,3,0,0,0,.36-.79s1.78-8.32,3.56-7.13c15,10,.3,9.21.3,9.21.6,2.38,4.16,10.1,10.7,5.35S394.88,249,394.88,249Z" transform="translate(-264.03 -84.1)"/><path class="cls-12" d="M465.69,248.82a12.37,12.37,0,0,1,.84,3.9,7.82,7.82,0,0,1-3,6.67c-3-.14-6.25-.62-7.83-2.19a8.36,8.36,0,0,0,4.59-4.61c1.26-3.29.15-7-.66-9C461.5,245.07,463.71,246.91,465.69,248.82Z" transform="translate(-264.03 -84.1)"/><path class="cls-12" d="M466.78,249.9a26.52,26.52,0,0,1,3,3.56c3.57,5.35-1.19,6-1.19,6-.88,0-2.34,0-4,0C467.84,256.31,467.41,252.25,466.78,249.9Z" transform="translate(-264.03 -84.1)"/><path class="cls-12" d="M442.15,249v-3h4.16l9.51-5.34s1.07.76,2.65,2c.45.89,2.71,5.7,1.2,9.67a7.73,7.73,0,0,1-4.38,4.29,2.7,2.7,0,0,1-.36-.79s-1.79-8.32-3.57-7.13c-15,10-.3,9.21-.3,9.21-.59,2.38-4.16,10.1-10.69,5.35S442.15,249,442.15,249Z" transform="translate(-264.03 -84.1)"/></g></svg>